# xmcd
#
# Track frame offsets:
#  150
#  15124
#  30877
#  46464
#  60438
#  74970
#  90163
#  103876
#  118295
#  132053
#  145197
#  159133
#  172564
#  185727
#  199775
#  213312
#  226538
#  239798
#  253351
#  266763
#  280379
#  293969
#
# Disc length: 4089 seconds
#
# Revision: 0
# Processed by: cddbd v1.5.1PL2 Copyright (c) Steve Scherf et al.
# Submitted via: Collectorz.com_Music_Collector 6.11
#
DISCID=3b0ff716
DTITLE=Lizzie Miles - Complete Recorded Works In Chronological Order Volume 2 (1923-28)
DYEAR=1900
DGENRE=Blues
TTITLE0=Haitian Blues (A Wild Weepin' Moan)
TTITLE1=You're Always Messin' Round With My Man
TTITLE2=Family Trouble Blues
TTITLE3=Triflin' Man
TTITLE4=My Pillow And Me
TTITLE5=Black Man (Be On Yo' Way)
TTITLE6=Keep Yourself Together Sweet Papa
TTITLE7=Cotton Belt Blues
TTITLE8=Slow Up Papa
TTITLE9=Grievin' Mama Blues
TTITLE10=Mean Old Bedbug Blues
TTITLE11=You Can't Have It Unless I Give It To You
TTITLE12=When You Get Tired of Your New Sweetie
TTITLE13=Police Blues
TTITLE14=Don't Let Your Love Come Down
TTITLE15=Shootin' Star Blues
TTITLE16=Lonesome Ghost Blues
TTITLE17=If You Can't Control Your Man
TTITLE18=Nobody Shows What My Baby Shows
TTITLE19=Second Hand Daddy
TTITLE20=A Good Man Is Hard to Find (take 2)
TTITLE21=A Good Man Is Hard to Find (take 3)
EXTD=
EXTT0=
EXTT1=
EXTT2=
EXTT3=
EXTT4=
EXTT5=
EXTT6=
EXTT7=
EXTT8=
EXTT9=
EXTT10=
EXTT11=
EXTT12=
EXTT13=
EXTT14=
EXTT15=
EXTT16=
EXTT17=
EXTT18=
EXTT19=
EXTT20=
EXTT21=
PLAYORDER=
